HIERARCHY
ROOT mixamorig:Hips
{
	OFFSET 0.000000 201.639420 0.000000
	CHANNELS 6 Xposition Yposition Zposition Xrotation Yrotation Zrotation
	JOINT mixamorig:Spine
	{
		OFFSET 0.006200 19.524994 -2.481800
		CHANNELS 3 Xrotation Yrotation Zrotation
		JOINT mixamorig:Spine1
		{
			OFFSET -0.000900 22.835007 -2.825400
			CHANNELS 3 Xrotation Yrotation Zrotation
			JOINT mixamorig:Spine2
			{
				OFFSET -0.020600 26.552490 -3.193300
				CHANNELS 3 Xrotation Yrotation Zrotation
				JOINT mixamorig:Neck
				{
					OFFSET -0.060000 30.701813 1.352200
					CHANNELS 3 Xrotation Yrotation Zrotation
					JOINT mixamorig:Head
					{
						OFFSET -0.087200 22.547607 3.670900
						CHANNELS 3 Xrotation Yrotation Zrotation
						JOINT mixamorig:HeadTop_End
						{
							OFFSET -0.830600 40.355194 7.893500
							CHANNELS 3 Xrotation Yrotation Zrotation
							End Site
							{
								OFFSET 0.000000 30.592346 0.000000
							}
						}
						JOINT mixamorig:RightEye
						{
							OFFSET -6.302100 18.118591 16.197100
							CHANNELS 3 Xrotation Yrotation Zrotation
							End Site
							{
								OFFSET 0.000000 30.592346 0.000000
							}
						}
						JOINT mixamorig:LeftEye
						{
							OFFSET 6.741500 18.382690 16.401899
							CHANNELS 3 Xrotation Yrotation Zrotation
							End Site
							{
								OFFSET 0.000000 30.592346 0.000000
							}
						}
					}
				}
				JOINT mixamorig:LeftShoulder
				{
					OFFSET 11.924900 18.230499 1.425400
					CHANNELS 3 Xrotation Yrotation Zrotation
					JOINT mixamorig:LeftArm
					{
						OFFSET 25.435989 -0.697632 -5.229300
						CHANNELS 3 Xrotation Yrotation Zrotation
						JOINT mixamorig:LeftForeArm
						{
							OFFSET 54.684776 0.000000 0.000000
							CHANNELS 3 Xrotation Yrotation Zrotation
							JOINT mixamorig:LeftHand
							{
								OFFSET 55.098175 0.000000 0.000000
								CHANNELS 3 Xrotation Yrotation Zrotation
								JOINT mixamorig:LeftHandMiddle1
								{
									OFFSET 23.369751 0.000000 0.000000
									CHANNELS 3 Xrotation Yrotation Zrotation
									JOINT mixamorig:LeftHandMiddle2
									{
										OFFSET 6.378677 0.000000 0.000000
										CHANNELS 3 Xrotation Yrotation Zrotation
										JOINT mixamorig:LeftHandMiddle3
										{
											OFFSET 6.148331 0.000000 0.000000
											CHANNELS 3 Xrotation Yrotation Zrotation
											JOINT mixamorig:LeftHandMiddle4
											{
												OFFSET 6.582504 0.000000 0.000000
												CHANNELS 3 Xrotation Yrotation Zrotation
												End Site
												{
													OFFSET -1.168900 6.395691 1.028606
												}
											}
										}
									}
								}
								JOINT mixamorig:LeftHandThumb1
								{
									OFFSET 7.235672 -3.848206 5.434273
									CHANNELS 3 Xrotation Yrotation Zrotation
									JOINT mixamorig:LeftHandThumb2
									{
										OFFSET 6.568451 -3.792297 3.792300
										CHANNELS 3 Xrotation Yrotation Zrotation
										JOINT mixamorig:LeftHandThumb3
										{
											OFFSET 6.063080 -3.500519 3.500518
											CHANNELS 3 Xrotation Yrotation Zrotation
											JOINT mixamorig:LeftHandThumb4
											{
												OFFSET 4.793182 -2.767334 2.767349
												CHANNELS 3 Xrotation Yrotation Zrotation
												End Site
												{
													OFFSET 0.101639 6.054260 1.275483
												}
											}
										}
									}
								}
								JOINT mixamorig:LeftHandIndex1
								{
									OFFSET 23.101074 -0.309540 4.992809
									CHANNELS 3 Xrotation Yrotation Zrotation
									JOINT mixamorig:LeftHandIndex2
									{
										OFFSET 6.226883 0.000000 0.000000
										CHANNELS 3 Xrotation Yrotation Zrotation
										JOINT mixamorig:LeftHandIndex3
										{
											OFFSET 6.094330 0.000000 0.000000
											CHANNELS 3 Xrotation Yrotation Zrotation
											JOINT mixamorig:LeftHandIndex4
											{
												OFFSET 5.482605 0.000000 0.000000
												CHANNELS 3 Xrotation Yrotation Zrotation
												End Site
												{
													OFFSET -1.427902 5.233032 0.797164
												}
											}
										}
									}
								}
								JOINT mixamorig:LeftHandRing1
								{
									OFFSET 22.299240 0.021149 -3.964172
									CHANNELS 3 Xrotation Yrotation Zrotation
									JOINT mixamorig:LeftHandRing2
									{
										OFFSET 6.321869 0.000000 0.000000
										CHANNELS 3 Xrotation Yrotation Zrotation
										JOINT mixamorig:LeftHandRing3
										{
											OFFSET 5.899796 0.000000 0.000000
											CHANNELS 3 Xrotation Yrotation Zrotation
											JOINT mixamorig:LeftHandRing4
											{
												OFFSET 6.517899 0.000000 0.000000
												CHANNELS 3 Xrotation Yrotation Zrotation
												End Site
												{
													OFFSET -1.637299 6.232208 0.980890
												}
											}
										}
									}
								}
								JOINT mixamorig:LeftHandPinky1
								{
									OFFSET 20.463791 -0.302338 -8.562233
									CHANNELS 3 Xrotation Yrotation Zrotation
									JOINT mixamorig:LeftHandPinky2
									{
										OFFSET 6.908646 0.000000 0.000000
										CHANNELS 3 Xrotation Yrotation Zrotation
										JOINT mixamorig:LeftHandPinky3
										{
											OFFSET 4.622849 0.000000 0.000000
											CHANNELS 3 Xrotation Yrotation Zrotation
											JOINT mixamorig:LeftHandPinky4
											{
												OFFSET 5.216080 0.000000 0.000000
												CHANNELS 3 Xrotation Yrotation Zrotation
												End Site
												{
													OFFSET -0.606308 5.116241 0.814926
												}
											}
										}
									}
								}
							}
						}
					}
				}
				JOINT mixamorig:RightShoulder
				{
					OFFSET -12.001300 18.284088 1.348900
					CHANNELS 3 Xrotation Yrotation Zrotation
					JOINT mixamorig:RightArm
					{
						OFFSET -25.308500 -0.751312 -5.164599
						CHANNELS 3 Xrotation Yrotation Zrotation
						JOINT mixamorig:RightForeArm
						{
							OFFSET -54.684429 0.000000 0.000000
							CHANNELS 3 Xrotation Yrotation Zrotation
							JOINT mixamorig:RightHand
							{
								OFFSET -55.150291 0.000000 0.000000
								CHANNELS 3 Xrotation Yrotation Zrotation
								JOINT mixamorig:RightHandMiddle1
								{
									OFFSET -23.317566 0.000000 0.000000
									CHANNELS 3 Xrotation Yrotation Zrotation
									JOINT mixamorig:RightHandMiddle2
									{
										OFFSET -6.378403 0.000000 0.000000
										CHANNELS 3 Xrotation Yrotation Zrotation
										JOINT mixamorig:RightHandMiddle3
										{
											OFFSET -6.148193 0.000000 0.000000
											CHANNELS 3 Xrotation Yrotation Zrotation
											JOINT mixamorig:RightHandMiddle4
											{
												OFFSET -6.583389 0.000000 0.000000
												CHANNELS 3 Xrotation Yrotation Zrotation
												End Site
												{
													OFFSET 1.171692 6.395905 1.029786
												}
											}
										}
									}
								}
								JOINT mixamorig:RightHandThumb1
								{
									OFFSET -7.190521 -3.860474 5.435846
									CHANNELS 3 Xrotation Yrotation Zrotation
									JOINT mixamorig:RightHandThumb2
									{
										OFFSET -6.567429 -3.791718 3.791708
										CHANNELS 3 Xrotation Yrotation Zrotation
										JOINT mixamorig:RightHandThumb3
										{
											OFFSET -6.062469 -3.500153 3.500166
											CHANNELS 3 Xrotation Yrotation Zrotation
											JOINT mixamorig:RightHandThumb4
											{
												OFFSET -4.792618 -2.767029 2.767022
												CHANNELS 3 Xrotation Yrotation Zrotation
												End Site
												{
													OFFSET -0.100327 6.053253 1.276754
												}
											}
										}
									}
								}
								JOINT mixamorig:RightHandIndex1
								{
									OFFSET -23.048981 -0.310791 4.992554
									CHANNELS 3 Xrotation Yrotation Zrotation
									JOINT mixamorig:RightHandIndex2
									{
										OFFSET -6.227539 0.000000 0.000000
										CHANNELS 3 Xrotation Yrotation Zrotation
										JOINT mixamorig:RightHandIndex3
										{
											OFFSET -6.095047 0.000000 0.000000
											CHANNELS 3 Xrotation Yrotation Zrotation
											JOINT mixamorig:RightHandIndex4
											{
												OFFSET -5.484772 0.000000 0.000000
												CHANNELS 3 Xrotation Yrotation Zrotation
												End Site
												{
													OFFSET 1.420593 5.237305 0.797056
												}
											}
										}
									}
								}
								JOINT mixamorig:RightHandRing1
								{
									OFFSET -22.246323 0.020569 -3.963762
									CHANNELS 3 Xrotation Yrotation Zrotation
									JOINT mixamorig:RightHandRing2
									{
										OFFSET -6.322128 0.000000 0.000000
										CHANNELS 3 Xrotation Yrotation Zrotation
										JOINT mixamorig:RightHandRing3
										{
											OFFSET -5.900024 0.000000 0.000000
											CHANNELS 3 Xrotation Yrotation Zrotation
											JOINT mixamorig:RightHandRing4
											{
												OFFSET -6.518356 0.000000 0.000000
												CHANNELS 3 Xrotation Yrotation Zrotation
												End Site
												{
													OFFSET 1.636398 6.232697 0.982186
												}
											}
										}
									}
								}
								JOINT mixamorig:RightHandPinky1
								{
									OFFSET -20.411011 -0.303314 -8.561701
									CHANNELS 3 Xrotation Yrotation Zrotation
									JOINT mixamorig:RightHandPinky2
									{
										OFFSET -6.907349 0.000000 0.000000
										CHANNELS 3 Xrotation Yrotation Zrotation
										JOINT mixamorig:RightHandPinky3
										{
											OFFSET -4.623840 0.000000 0.000000
											CHANNELS 3 Xrotation Yrotation Zrotation
											JOINT mixamorig:RightHandPinky4
											{
												OFFSET -5.218353 0.000000 0.000000
												CHANNELS 3 Xrotation Yrotation Zrotation
												End Site
												{
													OFFSET 0.602097 5.118835 0.816273
												}
											}
										}
									}
								}
							}
						}
					}
				}
			}
		}
	}
	JOINT mixamorig:LeftUpLeg
	{
		OFFSET 18.168400 -13.561905 -0.039000
		CHANNELS 3 Xrotation Yrotation Zrotation
		JOINT mixamorig:LeftLeg
		{
			OFFSET 0.577358 -80.825211 -3.695000
			CHANNELS 3 Xrotation Yrotation Zrotation
			JOINT mixamorig:LeftFoot
			{
				OFFSET -0.577356 -83.370262 -6.520700
				CHANNELS 3 Xrotation Yrotation Zrotation
				JOINT mixamorig:LeftToeBase
				{
					OFFSET 0.750401 -20.798306 25.135401
					CHANNELS 3 Xrotation Yrotation Zrotation
					JOINT mixamorig:LeftToe_End
					{
						OFFSET -0.000500 0.001200 19.917799
						CHANNELS 3 Xrotation Yrotation Zrotation
						End Site
						{
							OFFSET 0.000000 19.917805 0.000000
						}
					}
				}
			}
		}
	}
	JOINT mixamorig:RightUpLeg
	{
		OFFSET -18.162500 -13.585098 -0.041000
		CHANNELS 3 Xrotation Yrotation Zrotation
		JOINT mixamorig:RightLeg
		{
			OFFSET -0.595024 -80.945297 -3.631900
			CHANNELS 3 Xrotation Yrotation Zrotation
			JOINT mixamorig:RightFoot
			{
				OFFSET 0.595024 -83.218193 -6.561200
				CHANNELS 3 Xrotation Yrotation Zrotation
				JOINT mixamorig:RightToeBase
				{
					OFFSET -0.753601 -20.807106 25.115000
					CHANNELS 3 Xrotation Yrotation Zrotation
					JOINT mixamorig:RightToe_End
					{
						OFFSET 0.000299 0.001700 19.918200
						CHANNELS 3 Xrotation Yrotation Zrotation
						End Site
						{
							OFFSET 0.000000 19.918203 0.000000
						}
					}
				}
			}
		}
	}
}
MOTION
Frames: 4
Frame Time: 0.033333
0.691124 177.020813 -1.356060 15.605097 -20.993397 4.287086 10.719291 -2.277641 -0.238454 1.219973 -0.341785 -0.073633 1.219801 -0.345600 -0.069237 -5.205839 3.181757 0.751285 -22.920161 15.756037 4.043369 0.000000 0.000000 0.000000 0.000000 0.000000 0.000000 0.000000 0.000000 0.000000 2.113223 -16.711757 -11.119679 -14.757332 -2.962041 -42.411715 -0.000044 -109.736599 -0.000048 -75.647992 2.869908 28.888032 1.973180 4.829004 -44.431043 4.287483 6.375842 -67.808376 1.798338 4.644566 -42.313941 -0.000002 0.000000 -0.000000 21.517370 8.235280 -27.163334 22.939346 19.036051 12.459570 7.969182 6.174915 9.535363 0.000004 0.000000 -0.000006 2.917506 5.629438 -54.764088 4.896153 6.589972 -73.195401 1.351328 4.101648 -36.456681 -0.000001 -0.000001 -0.000001 1.974545 4.830408 -44.447149 4.285693 6.375125 -67.792223 1.798332 4.644561 -42.313930 -0.000001 -0.000000 0.000002 6.249859 7.972521 -54.648473 4.909040 2.506893 -73.357741 1.351312 4.101668 -36.456667 -0.000003 0.000000 -0.000000 1.127417 8.518168 10.703934 30.551675 15.350109 28.044313 0.000106 87.145325 -0.000019 20.886515 18.226283 -19.342300 2.909502 -5.658593 54.394144 3.753786 -6.173571 62.571541 1.464119 -4.272954 37.813485 -0.000001 0.000000 -0.000001 25.626214 -6.949364 30.094008 13.709602 -18.489559 -19.718985 4.019194 -3.678608 -12.570871 -0.000002 -0.000000 0.000000 4.243567 -6.402583 67.041093 3.958616 -6.274995 64.460716 1.067727 -3.707557 32.121833 0.000003 -0.000000 0.000001 2.909508 -5.658596 54.394131 3.753776 -6.173572 62.571554 1.464126 -4.272947 37.813488 0.000002 0.000001 0.000001 4.243557 -6.402580 67.041093 3.958621 -6.275035 64.460709 1.067725 -3.707550 32.121826 -0.000003 -0.000001 -0.000000 -59.652509 2.985871 17.566101 48.693709 10.356010 3.591559 0.066573 6.541568 -12.992744 -0.000097 0.000003 0.000003 -0.000000 0.000001 0.000000 -48.952553 -7.371383 -21.596471 53.789813 -8.998606 0.284440 -14.613210 -3.088458 17.345631 -0.000049 -0.000002 0.000002 0.000000 -0.000002 -0.000000 
0.500159 177.053253 -1.383198 15.723997 -20.847296 4.035555 10.779328 -2.476591 -0.166867 1.240029 -0.352888 -0.084815 1.239936 -0.346976 -0.080161 -5.560314 3.282851 0.957438 -23.565216 16.332143 4.796084 -0.000000 0.000000 0.000000 -0.000000 0.000000 0.000000 -0.000000 0.000000 0.000000 2.092820 -16.559005 -10.903898 -14.544442 -2.522989 -42.166630 0.000001 -110.569370 0.000007 -76.065822 3.108310 29.434202 1.973177 4.829004 -44.431040 4.287485 6.375842 -67.808383 1.798336 4.644565 -42.313941 -0.000002 -0.000001 0.000002 21.517372 8.235281 -27.163343 22.939346 19.036051 12.459569 7.969185 6.174914 9.535364 0.000004 0.000000 -0.000003 2.917507 5.629441 -54.764098 4.896155 6.589972 -73.195401 1.351331 4.101654 -36.456685 -0.000000 -0.000002 0.000000 1.974540 4.830413 -44.447149 4.285697 6.375121 -67.792223 1.798332 4.644566 -42.313934 0.000000 -0.000001 0.000002 6.249855 7.972524 -54.648480 4.909041 2.506892 -73.357741 1.351311 4.101665 -36.456671 0.000000 -0.000001 0.000001 1.139603 8.823783 10.222545 30.180697 16.094593 28.337644 0.000117 86.924614 -0.000098 20.992535 18.142224 -19.702077 2.909507 -5.658595 54.394148 3.753786 -6.173572 62.571541 1.464117 -4.272956 37.813485 0.000000 0.000001 -0.000000 25.626217 -6.949364 30.094008 13.709603 -18.489558 -19.718978 4.019194 -3.678606 -12.570874 0.000002 0.000001 0.000000 4.243570 -6.402585 67.041087 3.958616 -6.274997 64.460709 1.067722 -3.707556 32.121826 0.000003 0.000000 0.000000 2.909509 -5.658596 54.394131 3.753775 -6.173572 62.571554 1.464128 -4.272948 37.813485 -0.000003 0.000001 0.000000 4.243562 -6.402582 67.041093 3.958620 -6.275037 64.460709 1.067735 -3.707550 32.121826 -0.000004 0.000000 0.000001 -59.595887 2.124770 17.651842 48.687443 10.357341 3.216975 0.146955 6.726982 -13.076354 -0.000077 -0.000002 0.000001 0.000000 0.000000 0.000000 -48.938961 -7.735801 -21.373941 53.684949 -9.100157 0.210026 -14.644675 -3.102151 17.356072 -0.000023 -0.000000 0.000005 0.000000 -0.000000 -0.000000 
-0.264190 177.171921 -1.621307 15.931906 -19.867956 3.325121 10.705817 -2.536367 0.004634 1.251570 -0.335213 -0.038760 1.251074 -0.314169 -0.034224 -5.836669 3.346205 0.836511 -24.286742 16.106595 5.931268 0.000000 -0.000000 0.000000 0.000000 -0.000000 0.000000 0.000000 -0.000000 0.000000 2.102891 -16.408210 -10.577260 -14.540761 -3.715360 -41.794423 -0.000030 -109.980314 -0.000004 -76.725195 3.010878 30.398508 1.973180 4.829001 -44.431036 4.287486 6.375842 -67.808376 1.798341 4.644565 -42.313944 0.000001 0.000001 0.000002 21.517367 8.235277 -27.163338 22.939342 19.036053 12.459570 7.969180 6.174915 9.535372 -0.000001 0.000004 0.000001 2.917503 5.629439 -54.764095 4.896152 6.589970 -73.195401 1.351324 4.101656 -36.456688 -0.000000 0.000001 -0.000003 1.974538 4.830410 -44.447149 4.285694 6.375119 -67.792216 1.798336 4.644564 -42.313934 -0.000000 0.000001 -0.000002 6.249855 7.972520 -54.648480 4.909035 2.506892 -73.357734 1.351309 4.101663 -36.456671 0.000000 -0.000003 0.000000 1.173384 9.279632 9.552958 29.613839 16.197363 29.466502 -0.000094 86.737050 -0.000029 20.350306 18.243514 -19.699444 2.909509 -5.658594 54.394148 3.753784 -6.173575 62.571547 1.464117 -4.272950 37.813481 -0.000001 -0.000000 -0.000002 25.626224 -6.949365 30.094008 13.709601 -18.489558 -19.718976 4.019194 -3.678608 -12.570874 0.000000 -0.000000 -0.000000 4.243575 -6.402585 67.041093 3.958617 -6.274991 64.460709 1.067726 -3.707556 32.121830 0.000001 0.000000 0.000001 2.909514 -5.658596 54.394134 3.753776 -6.173572 62.571554 1.464127 -4.272952 37.813485 0.000003 -0.000000 0.000001 4.243564 -6.402579 67.041087 3.958621 -6.275036 64.460716 1.067729 -3.707549 32.121833 -0.000001 0.000000 0.000000 -59.885726 1.301521 17.595049 48.060083 10.268506 3.562668 0.657535 6.061748 -13.314319 -0.005328 0.000002 0.000002 -0.000000 0.000001 0.000000 -48.649785 -8.402775 -20.714780 53.566093 -9.467698 0.124993 -15.043526 -3.175953 17.391113 -0.000016 -0.000012 -0.000006 -0.000000 0.000002 0.000000 
-1.871169 177.558334 -1.961536 15.914004 -17.393780 2.099155 10.443226 -2.277638 0.297029 1.250099 -0.267090 0.083344 1.248766 -0.232165 0.087188 -5.835442 3.226128 0.073140 -24.590675 13.955968 7.464324 -0.000000 0.000000 0.000000 -0.000000 0.000000 0.000000 -0.000000 0.000000 0.000000 2.135977 -16.410349 -10.163199 -14.773716 -7.855109 -40.809783 -0.000012 -106.305112 0.000001 -78.203952 2.606098 31.487452 1.973180 4.829005 -44.431040 4.287482 6.375844 -67.808390 1.798337 4.644569 -42.313944 -0.000000 -0.000002 0.000002 21.517370 8.235277 -27.163338 22.939344 19.036048 12.459570 7.969179 6.174908 9.535374 0.000003 -0.000000 -0.000001 2.917509 5.629438 -54.764091 4.896156 6.589970 -73.195401 1.351327 4.101646 -36.456681 -0.000000 -0.000002 0.000000 1.974546 4.830411 -44.447149 4.285697 6.375123 -67.792223 1.798332 4.644559 -42.313934 -0.000004 0.000005 -0.000001 6.249860 7.972518 -54.648473 4.909035 2.506895 -73.357741 1.351310 4.101666 -36.456664 -0.000001 -0.000001 0.000001 1.246087 9.975189 8.733719 29.567493 15.506952 30.881058 0.000134 85.725561 -0.000165 17.973231 18.764568 -19.057956 2.909503 -5.658595 54.394141 3.753784 -6.173569 62.571541 1.464114 -4.272954 37.813488 -0.000002 0.000001 -0.000000 25.626221 -6.949364 30.094005 13.709599 -18.489554 -19.718975 4.019194 -3.678606 -12.570876 0.000000 -0.000000 0.000002 4.243568 -6.402586 67.041093 3.958616 -6.274993 64.460709 1.067722 -3.707557 32.121826 0.000003 -0.000001 -0.000002 2.909507 -5.658595 54.394134 3.753776 -6.173571 62.571554 1.464124 -4.272954 37.813485 0.000003 -0.000000 0.000001 4.243559 -6.402580 67.041093 3.958621 -6.275032 64.460716 1.067730 -3.707548 32.121826 0.000000 -0.000001 0.000001 -60.162157 0.886083 16.934402 46.242655 10.283869 4.945296 1.794773 3.878724 -13.635415 -0.006900 -0.000003 0.000001 0.000000 0.000001 0.000000 -47.564874 -9.702302 -19.950793 53.241366 -9.066047 0.008531 -16.015074 -4.164107 17.185712 -0.012756 -0.000000 -0.000005 -0.000000 -0.000000 -0.000000 
